<svg width="54" height="55" viewBox="0 0 54 55" fill="none" xmlns="http://www.w3.org/2000/svg">
<path d="M25.105 30.4457C25.592 30.5405 25.6796 30.3021 25.7591 30.133C25.8376 29.9628 26.0709 29.703 26.4112 29.542C26.7525 29.38 27.21 29.1069 27.3883 28.9439C27.5686 28.7809 27.7612 28.5782 28.1708 28.5619C28.5814 28.5445 28.7851 28.3448 28.9135 28.0809C29.0449 27.8171 28.9532 27.2628 29.0429 27.0662C29.1326 26.8716 29.3598 26.5262 29.4932 26.2215C29.6288 25.9179 29.5116 25.9434 29.3109 26.031C29.1102 26.1166 28.9349 26.1869 28.8575 26.4569C28.778 26.7279 28.7057 26.79 28.453 26.9745C28.1983 27.1579 28.0139 27.2893 27.7418 27.3769C27.4667 27.4635 26.9339 27.6306 26.6333 27.7773C26.3531 27.9139 26.0566 28.0769 25.7326 28.2705L23.6643 30.3388C24.0505 30.299 24.6699 30.3612 25.105 30.4457Z" fill="#3FA9F5"/>
<path d="M47.5587 9.50781C47.4589 9.58932 47.3855 9.6637 47.3692 9.71668C47.3162 9.90415 47.2877 10.7192 47.0972 11.0687C46.9107 11.4182 46.8466 12.0896 46.8445 12.2149C46.8394 12.3392 46.8241 12.5593 46.6978 12.7651C46.5745 12.9699 46.3218 13.2685 46.4135 13.4203C46.5042 13.5721 46.868 13.8441 46.6764 14.0397C46.4838 14.2354 46.0172 14.5186 46.1517 14.808C46.2913 15.0983 46.5093 15.6292 46.4991 15.8462C46.4889 16.0632 46.3575 16.2741 46.493 16.4188C46.6295 16.5635 46.7436 16.86 46.545 17.1758C46.3463 17.4927 45.3733 18.862 44.7752 19.3623C44.1792 19.8636 43.628 20.427 43.4578 20.751C43.2877 21.075 43.2683 21.3226 43.1827 21.4357C43.0981 21.5488 42.8516 21.723 42.6743 21.8932C42.499 22.0633 42.6366 22.1662 42.7283 22.317C42.82 22.4688 42.7436 22.7083 42.5989 22.855C42.4532 23.0017 42.063 23.2116 42.3055 23.3695C42.5469 23.5285 42.6081 23.7995 42.4929 23.9228C42.3788 24.046 42.1261 24.3792 42.1098 24.5025C42.0915 24.6258 41.5291 24.6299 41.2611 24.4475C40.9952 24.2651 40.555 23.9747 40.6498 23.884C40.7446 23.7934 40.9952 23.6609 41.2204 23.3797C41.4476 23.0985 41.4201 22.6981 41.5484 22.6532C41.6819 22.6094 41.7155 22.3639 41.4873 22.207C41.257 22.0501 41.1755 21.8932 41.3976 21.6323C41.6218 21.3715 41.8806 20.8662 41.4934 20.6461C41.1063 20.426 40.6743 20.533 40.175 20.6929C39.6737 20.8539 39.7593 20.9701 39.1164 21.5682C38.4704 22.1662 38.7374 22.4953 38.3441 22.9212C37.9529 23.3461 37.9865 23.559 37.5942 23.9839C37.204 24.4098 36.609 24.7857 36.4184 25.1138C36.2269 25.4419 36.446 25.5132 36.8566 25.2575C37.2682 25.0028 37.0807 24.9966 37.693 24.9345C38.3074 24.8734 38.3115 24.9783 38.7333 24.7857C39.1582 24.5942 39.3854 24.4587 39.5667 24.6502C39.7491 24.8428 40.066 25.2615 40.2066 25.5937C40.3492 25.9259 40.388 26.3894 40.2718 26.9366C40.1536 27.4827 40.2239 27.7425 39.907 28.0746C39.5892 28.4048 39.15 28.5739 38.7272 28.7665C38.3044 28.958 38.4419 28.8724 38.0374 29.0874C37.6329 29.3034 37.5494 29.1455 37.3599 28.8694C37.1683 28.5932 36.5896 28.7002 36.3308 28.9152C36.0741 29.1302 35.1948 30.0716 34.8993 30.2387C34.6059 30.4068 33.7989 30.6503 33.533 30.9254C33.2661 31.2016 33.2131 31.4451 33.3955 31.6152C33.5809 31.7874 33.7673 32.3967 33.2987 32.6229C32.83 32.8491 32.5559 33.0212 32.4286 33.3361C32.3032 33.6529 31.7164 33.9892 31.3608 34.1267C31.0083 34.2663 30.2227 34.5322 29.9405 34.9112C29.6603 35.2892 29.4463 35.6132 29.1152 35.7549C28.7841 35.8985 28.189 36.2745 27.8294 36.3081C27.4697 36.3417 27.1834 35.8445 26.3958 35.9862C25.6052 36.1278 24.786 36.3265 24.5996 36.4681C24.4111 36.6087 24.2063 36.8919 23.9801 37.0295C23.7519 37.164 23.5563 37.3881 22.9154 37.4849C22.2786 37.5858 22.086 37.6225 21.6775 37.8568C21.2709 38.0922 20.9143 38.3978 20.5638 38.5374C20.2093 38.676 19.8252 38.6016 19.654 39.0784C19.4849 39.5552 19.4023 40.1482 19.0804 40.3734C18.7574 40.6006 18.6901 40.7779 18.412 40.8227C18.1369 40.8696 18.0737 39.8181 17.3921 39.9322C16.7074 40.0463 16.4823 40.1615 16.2673 40.0698C16.0503 39.9771 15.9524 39.921 15.6335 39.9822C15.3126 40.0423 14.6035 39.9017 14.3793 40.3092C14.1572 40.7157 13.8801 40.7606 13.6488 41.3953C13.4124 42.0301 13.3788 42.1299 13.713 42.2787C14.0472 42.4295 14.0278 42.5731 13.8424 42.7148C13.6539 42.8554 13.1954 43.1468 13.067 43.483C12.9376 43.8192 12.9091 44.024 12.7267 44.2899C12.5443 44.5559 12.1592 44.9206 12.3334 45.0276C12.5076 45.1346 12.7002 45.3903 12.5015 45.4688C12.3049 45.5452 11.8892 45.6756 11.5754 46.1534C11.2575 46.6313 10.5708 47.2446 10.2702 47.5992C10.1643 47.7245 10.0593 47.8305 9.94214 47.9263C14.5912 51.7236 20.5282 54.0018 27 54.0018C41.9122 54.0018 54 41.9139 54 27.0018C54 20.3262 51.5721 14.2211 47.5587 9.50781Z" fill="#3FA9F5"/>
<path d="M24.5882 28.6302C24.2887 28.5884 24.0278 28.8228 23.9097 28.9318C23.7894 29.0398 23.7161 28.9675 23.4777 28.8931C23.2372 28.8187 22.9917 29.0775 22.9244 29.2752C22.8551 29.4738 22.5036 29.4463 22.3722 29.3444C22.2407 29.2426 21.8882 29.3821 21.6804 29.5217C21.4735 29.6593 21.2871 29.862 21.0691 30.0831C20.851 30.3022 21.3278 30.5151 21.4858 30.6822C21.6366 30.8412 21.8791 30.7637 22.0258 30.7006C22.1735 30.6374 22.4751 30.5549 22.6666 30.4835C22.8572 30.4132 23.1598 30.4275 23.5174 30.3511C23.5561 30.3429 23.6152 30.3419 23.6621 30.3378L25.7304 28.2695C25.7069 28.2838 25.6855 28.295 25.6621 28.3093C25.3096 28.5202 24.8837 28.6699 24.5882 28.6302Z" fill="#70CF29"/>
<path d="M6.18351 43.1307C7.2034 42.7986 8.10408 41.7012 8.46374 41.1113C8.82136 40.5224 9.73324 39.3426 10.3099 38.5876C10.8866 37.8336 12.3772 36.9003 13.6294 36.4877C14.8795 36.0771 16.2876 35.5483 17.008 34.7587C17.7263 33.9691 17.6763 33.7398 18.1491 33.5269C18.6218 33.3149 19.2403 33.0674 19.388 32.8086C19.5337 32.5518 19.5409 31.6909 20.2673 31.4575C20.9938 31.2242 20.9673 31.214 21.0315 30.9104C21.0946 30.6068 20.6688 30.3806 20.4405 30.349C20.2164 30.3185 19.5704 30.4794 19.6601 30.2624C19.7528 30.0464 20.1858 29.4799 20.7431 29.2242C21.2994 28.9674 21.9648 28.5171 22.1298 28.2267C22.2949 27.9374 22.7554 27.4595 23.3117 27.2028C23.87 26.947 24.6362 26.5099 25.0122 26.354C25.3882 26.1971 26.3398 25.8069 26.5425 25.6897C26.7473 25.5715 27.5074 25.3433 27.5441 24.9317C27.5777 24.5201 27.2517 24.4752 27.6286 24.0066C28.0046 23.5369 28.2298 23.4217 28.564 22.8216C28.8951 22.2225 28.9939 22.1094 29.4657 21.8629C29.9374 21.6163 31.0999 20.9011 31.2456 20.9C31.3913 20.899 31.7286 20.8837 31.9935 20.4609C32.2584 20.0381 32.5865 20.0839 32.8473 20.0157C33.1061 19.9474 33.4902 19.2709 33.8183 19.169C34.1433 19.0681 34.2625 18.6677 34.3022 18.3824C34.342 18.0971 34.4938 17.4502 34.8168 17.3697C35.1397 17.2892 35.3557 16.7767 35.4362 16.4975C35.5157 16.2163 35.6206 15.4593 36.0119 15.3482C36.4021 15.2341 36.2666 15.2993 36.4948 15.0181C36.72 14.7359 36.9115 14.2621 37.262 13.9778C37.6166 13.6936 37.7817 13.5489 37.8774 13.1454C37.9763 12.742 38.2493 11.5091 38.7628 10.8092C39.2763 10.1092 39.7858 9.74242 40.3533 9.25743C40.9198 8.77245 40.9361 8.1917 41.257 7.84019C41.5769 7.48766 41.3569 7.26962 41.5555 7.04649C41.7502 6.82336 41.7766 6.63996 41.8133 6.51974C41.851 6.39849 41.6768 6.16721 41.9193 5.90842C42.1618 5.65064 42.3696 5.65879 42.5887 5.43872C42.7354 5.292 42.7038 5.1677 42.7028 5.04543C38.2789 1.87268 32.8605 0 27 0C12.0878 0 0 12.0878 0 27C0 33.1692 2.0734 38.8515 5.55487 43.3977C5.75762 43.2958 5.96751 43.2 6.18351 43.1307Z" fill="#70CF29"/>
</svg>
